<?xml version="1.0" encoding="utf-8"?>
<!-- Generator: Adobe Illustrator 23.1.0, SVG Export Plug-In . SVG Version: 6.00 Build 0)  -->
<svg version="1.1" id="Layer_1" xmlns="http://www.w3.org/2000/svg" xmlns:xlink="http://www.w3.org/1999/xlink" x="0px" y="0px"
	 viewBox="0 0 595.3 841.9" style="enable-background:new 0 0 595.3 841.9;" xml:space="preserve">
<style type="text/css">
	.st0{fill:#5B5B5B;}
	.st1{fill:#8C8C8C;}
	.st2{fill:#5E5E5E;}
	.st3{fill:#545454;}
	.st4{fill:#666666;}
	.st5{fill:#646666;}
	.st6{fill:#7F7F7F;}
	.st7{fill:#3F3F3F;}
	.st8{fill:#262626;}
	.st9{fill:#A6FCA4;}
	.st10{fill:#E5C1E2;}
	.st11{fill:#C0F2F2;}
	.st12{fill:#C4C4C4;}
	.st13{fill:#AEE5E3;}
	.st14{fill:#BBBAE2;}
	.st15{fill:#F4B3B3;}
	.st16{fill:#F2EFC0;}
	.st17{fill:#E2EDE2;}
	.st18{fill:#D1F2CE;}
	.st19{fill:#D4F4F2;}
	.st20{fill:#DDD8A6;}
	.st21{fill:#F2D7F1;}
	.st22{fill:none;stroke:#FFFFFF;stroke-width:2.5196;}
</style>
<polygon class="st0" points="250.6,699.6 236.4,707.2 236.4,640.4 250.6,640.4 "/>
<polygon class="st1" points="236.8,706.8 226.8,698.8 226.7,647.6 236.8,647.6 "/>
<polygon class="st2" points="226.8,698.8 196.6,712.2 196.2,640.4 226.7,640 "/>
<polygon class="st3" points="196.6,712.2 191.1,728.2 191.4,656.4 196.5,655.1 "/>
<polygon class="st1" points="191.1,728.2 80.7,710.6 80.6,672.3 191.6,671.1 "/>
<polygon class="st4" points="123,464.5 100,436.4 99.9,398.1 122.6,396.9 "/>
<polygon class="st0" points="66.8,378.6 40.9,398.9 40.3,359.9 65.9,359.1 "/>
<polygon class="st1" points="41.1,399.2 29.8,372.1 29.8,354.6 41.1,378.4 "/>
<polygon class="st2" points="80.7,711 49.4,719.7 49.9,655.1 80.6,653.9 "/>
<polygon class="st5" points="49.6,734.5 13.5,750.9 13.4,701.3 49.5,677.4 "/>
<polygon class="st1" points="13.5,750.9 0.4,728.2 0,708.5 13.6,712.7 "/>
<polygon class="st4" points="39.4,680.8 10.9,675.3 10.5,655.6 41.1,655.6 "/>
<polygon class="st6" points="38.2,593.4 36.5,582.5 36.1,564.9 47.8,565.3 "/>
<polygon class="st2" points="304.4,650.9 247.3,673.6 247.3,606.8 304.4,606.8 "/>
<polygon class="st4" points="108.4,387.2 71.7,370.5 70.5,304.1 128.9,304.1 "/>
<polygon class="st4" points="71.8,370.8 68,351.9 68,285.2 71.3,284.3 "/>
<polygon class="st0" points="72.6,332.6 46.1,331.8 46.1,280.6 72.6,288.5 "/>
<polygon class="st0" points="132.2,251.6 112.9,236.5 112.9,217.1 139.4,193.2 "/>
<polygon class="st4" points="124.3,205.4 91.9,199.9 91.9,180.6 133.9,156.7 "/>
<polygon class="st1" points="91.9,199.9 60,148.3 60,129 91.9,115.1 "/>
<polygon class="st1" points="325.1,661 304,651.1 304,585 325.4,585 "/>
<polygon class="st3" points="331.7,640.4 325.1,661 325.2,593.4 331.7,593.4 "/>
<polygon class="st2" points="364.5,635 331.7,640.4 331.7,573.7 364.4,573.7 "/>
<polygon class="st1" points="378.8,652.3 364.4,635 364.4,568.2 379.1,568.2 "/>
<polygon class="st6" points="406.5,658.5 378.7,652.2 378.7,585.4 406.4,585.4 "/>
<polygon class="st7" points="430.5,613.1 406.4,658.5 406.4,591.7 430.5,591.7 "/>
<polygon class="st3" points="493.9,576.2 430.4,613.1 430.4,546.4 494.2,530.8 "/>
<polygon class="st7" points="514.9,545.1 493.8,576.2 493.7,509.8 515.2,510.7 "/>
<polygon class="st8" points="541.8,452.4 514.9,545.1 514.8,478.8 541.4,430.9 "/>
<polygon class="st6" points="159.4,819.1 67.3,841.9 67.3,796.5 159.2,796.5 "/>
<polygon class="st1" points="67.5,841.8 36.4,806 36.4,787.1 67.2,819.2 "/>
<polygon class="st0" points="174.4,782.5 159.5,818.9 159.5,800 174.3,763.6 "/>
<path class="st9" d="M36.4,787.1c0.5-1.4,79.6-41.6,79.6-41.6l58.4,18.1l-14.9,36.6l-92.3,23.1L36.4,787.1z"/>
<polygon class="st10" points="484.6,466.2 433.4,489.7 349.8,480.9 324.2,448.5 300.7,440.3 290.2,443.1 258.7,487.2 270.4,514 
	253.9,531.6 265.3,564.2 288.7,602 296.4,635.7 275,643.7 275,643.7 304,632.9 325,642.1 331.7,621.1 364.5,616.1 378.8,633.7 
	406.5,639.6 430.8,593.4 493.8,557.3 514.8,526.2 529.5,475.9 "/>
<polygon class="st11" points="44.5,318.1 29.8,354.6 40.9,380.1 66.7,359.7 "/>
<path class="st12" d="M208.7,248.1l72.1-46.1l76.2-3.5l50.2,40.2c0,0-10,60.3-12.4,60.3c-2.4,0-69.1,31.3-69.1,31.3l2.4,50.8
	l-5.5,42.8l-36.4,8l-44.3-0.6l-49-112.9L208.7,248.1z"/>
<polygon class="st13" points="260.1,423.9 260,407.9 252.4,379.9 248.3,355.8 227.2,335.7 215.4,298.7 230.4,287.4 218.5,262.1 
	145.9,264.4 129.3,248.9 129.3,249.1 93.2,237.3 44.5,279.3 46.2,312.9 67.2,313.7 68,332.2 71.4,351.5 108.3,368.3 96.6,391 
	98.9,409.2 132.4,424.1 157.4,411.7 170.5,412.4 184.1,415.8 204.9,400.7 220.7,401.5 235.5,424.1 "/>
<polygon class="st14" points="300.2,440.1 296.9,418.7 297.1,418.4 270.9,423.3 260.1,423.5 260.1,423.9 235.5,424.1 220.7,401.5 
	204.9,400.7 184.1,415.8 170.5,412.4 157.4,411.7 132.4,424.1 98.9,409.2 97.4,397.5 99.9,417 119.3,442.2 94.1,474.1 87.3,511.9 
	89,502.6 111.2,531.7 146.3,509.8 176.9,524.2 200.3,536.7 253.6,530.6 253.9,531.6 270.4,514 258.7,487.2 290.2,443.1 300.7,440.3 
	305.8,442.1 305.8,442.1 "/>
<path class="st9" d="M538.3,400.2l-18.5,8.4l8.4-125.1l-15.1-21.8L503.1,202l0.9,5.5l-17.8,27.4l-18.5,1.9l-65.3,4.2
	c0,0-5-2.5-12.2-6.1l-13.5,47.8l-30.7-7.2l-47.5,37.8l2.5,9.2l-8.4,39.9l19.7,19.4l-15.4,36.9l3.4,21.4l23.9,8.4l25.6,32.3l83.6,8.8
	l51.2-23.5l44.9,9.7l12.2-42.1L538.3,400.2z"/>
<path class="st15" d="M503.1,202l-43.7-72.2L377.1,5.5L366,0l-8.2,14.7L330.8,17l-11.7,17.9l-58,9.2l-64.7-5.5l9.1,24.5l46.8,41.2
	c0,0,1.1,41.9,2.3,41.9c1.1,0,33.2,12.5,33.2,12.5l-10.2,60.4l16.6,6.4c0,0,46.1-14.3,48.3-14c2.3,0.4,59.7,29.5,59.7,29.5l65.3-4.2
	l18.5-1.9l17.8-27.4L503.1,202z"/>
<path class="st16" d="M287.9,158.6c0,0-32.1-12.5-33.2-12.5s-2.3-41.9-2.3-41.9l-46.8-41.2l-9.1-24.5l-4.2-0.4L151.8,60l-0.7,8.4
	L124.3,87l9.2,21l-18.5,10.9L84,103.8L59.6,129L91.5,181l35.3,5.9l-14.3,30.2l16.8,13.4v18.3l16.6,15.5l72.5-2.3l0.7,1.2l34.5-26.8
	l31.4-14.6l-7.3-2.8L287.9,158.6z"/>
<polygon class="st12" points="288.7,602 265.3,564.2 253.6,530.6 200.3,536.7 176.9,524.2 146.3,509.8 111.2,531.7 89,502.6 
	87.3,511.9 67.2,543 70.5,556.4 36.3,563.5 40.3,586.7 21.8,601.8 10.9,656.4 35.3,661.4 0,708.5 13.4,732 49.5,715.2 49.5,700.9 
	80.6,691.7 191.5,709.3 196.5,693.3 226.8,679.9 236.8,688.3 250.3,680.8 247.8,653.9 296.4,635.7 "/>
<polygon class="st17" points="118.7,544.9 159.2,544.9 176,561.7 139.3,583.1 111,561.7 "/>
<polygon class="st18" points="366.8,440.5 373.7,460.1 367.7,482.8 389.6,485.1 422.9,442.4 404,418.5 "/>
<polygon class="st19" points="252.9,381.6 252.4,379.9 248.3,355.8 227.2,335.7 226.7,334.4 206.2,365 230.1,385.7 "/>
<polygon class="st20" points="109.8,154.6 102.9,131.9 111.1,117 84,103.8 59.6,129 91.5,181 125.9,186.8 145.1,176 140.1,145.8 "/>
<polygon class="st12" points="202.4,156.5 167.8,136.9 141.7,155.9 144.5,172.4 168.4,180.4 203.7,171.6 "/>
<polygon class="st21" points="432.6,592.4 493.8,557.3 502.5,544.4 490.3,523.1 440.5,549.5 436.1,564 387,578.5 401.5,592.4 
	428.5,582.9 "/>
<path class="st14" d="M484.6,466.2l-20,9.2c-2.4,8.1-4.6,16.2-4.6,16.2l27.7,19.5l1.6,12.5l1-0.5l12.3,21.4l-2.2,3.2l0,0l14.5-21.4
	l14.6-50.3L484.6,466.2z"/>
<g>
	<path class="st22" d="M430.4,593.4"/>
	<polyline class="st22" points="529.1,475.9 484.2,466.2 433,489.7 349.4,480.9 323.8,448.5 300.3,440.3 289.8,443.1 258.3,487.2 
		270,514 253.5,531.6 264.9,564.2 288.3,602 296,635.7 	"/>
	<polyline class="st22" points="98.5,409.2 132,424.1 157,411.7 170.1,412.4 183.7,415.8 204.5,400.7 220.3,401.5 235.1,424.1 
		259.7,423.9 259.6,407.9 252,379.9 247.9,355.8 226.7,335.7 215,298.7 230,287.4 218.1,262.1 145.6,264.4 128.9,248.9 128.9,249.1 
			"/>
	<polyline class="st22" points="88.6,502.6 110.8,531.7 145.9,509.8 176.5,524.2 199.9,536.7 253.2,530.6 253.5,531.6 270,514 
		258.3,487.2 289.8,443.1 300.3,440.3 305.4,442.1 305.4,442.1 299.8,440.1 296.5,418.7 296.7,418.4 270.5,423.3 259.7,423.5 
		259.7,423.9 235.1,424.1 220.3,401.5 204.5,400.7 183.7,415.8 170.1,412.4 157,411.7 132,424.1 98.5,409.2 	"/>
	<path class="st22" d="M503.6,207.5l-17.8,27.4l-18.5,1.9L402,241c0,0-5-2.5-12.2-6.1l-13.5,47.8l-30.7-7.1l-47.5,37.8l2.5,9.2
		l-8.4,39.9l19.6,19.4l-15.4,36.9l3.4,21.4l23.9,8.4l25.6,32.3l83.6,8.8l51.2-23.5l44.9,9.7"/>
	<path class="st22" d="M196.1,38.6l9.1,24.5l46.8,41.2c0,0,1.1,41.9,2.3,41.9c1.1,0,33.2,12.5,33.2,12.5l-10.2,60.4l16.6,6.4
		c0,0,46.1-14.3,48.3-14c2.3,0.4,59.7,29.5,59.7,29.5l65.3-4.2l18.5-1.9l17.8-27.4"/>
	<polyline class="st22" points="123.9,87 133.1,108 114.7,118.9 	"/>
	<path class="st22" d="M126.4,186.9l-14.3,30.2l16.8,13.4v18.3l16.6,15.5l72.5-2.3l0.7,1.2l34.5-26.8l31.4-14.6l-7.3-2.8l10.2-60.4
		c0,0-32.1-12.5-33.2-12.5s-2.3-41.9-2.3-41.9l-46.8-41.2l-9.1-24.5"/>
	<polyline class="st22" points="296,635.7 288.3,602 264.9,564.2 253.2,530.6 199.9,536.7 176.5,524.2 145.9,509.8 110.8,531.7 
		88.6,502.6 	"/>
	<polygon class="st22" points="118.3,544.9 158.8,544.9 175.6,561.7 138.9,583.1 110.6,561.7 	"/>
	<polygon class="st22" points="366.4,440.5 373.3,460.1 367.3,482.8 389.2,485.1 422.5,442.4 403.6,418.5 	"/>
	<polygon class="st22" points="252.5,381.6 252,379.9 247.9,355.8 226.7,335.7 226.3,334.4 205.8,365 229.7,385.7 	"/>
	<polyline class="st22" points="125.5,186.8 144.7,176 139.6,145.8 109.4,154.6 102.5,131.9 110.7,117 	"/>
	<polygon class="st22" points="202,156.5 167.4,136.9 141.3,155.9 144.1,172.4 168,180.4 203.3,171.6 	"/>
	<polyline class="st22" points="502.1,544.4 489.9,523.1 440.1,549.5 435.7,564 386.6,578.5 401.1,592.4 428.1,582.9 432.2,592.4 	
		"/>
	<path class="st22" d="M529.1,475.9l-44.9-9.7l-20,9.2c-2.4,8.1-4.6,16.2-4.6,16.2l27.7,19.5l1.6,12.5l1-0.5l12.3,21.4l-2.2,3.2l0,0
		"/>
</g>
</svg>
